<svg width="253" height="253" viewBox="0 0 253 253" fill="none" xmlns="http://www.w3.org/2000/svg">
<path d="M221.375 84.3333C219.246 84.3333 170.248 84.639 126.5 105.501C82.7521 84.639 33.7544 84.3333 31.625 84.3333C25.7954 84.3333 21.0833 89.0454 21.0833 94.875V199.058C21.0833 201.915 22.2429 204.645 24.2985 206.638C26.3541 208.62 29.3585 209.853 31.9834 209.589L33.3222 209.579C40.5221 209.579 78.6092 210.612 122.041 230.926C122.21 231.01 122.399 230.978 122.568 231.042C123.822 231.558 125.14 231.917 126.5 231.917C127.86 231.917 129.178 231.558 130.443 231.042C130.611 230.978 130.801 231.01 130.97 230.926C174.401 210.601 212.488 209.579 219.688 209.579L221.027 209.589C223.536 209.853 226.646 208.62 228.712 206.638C230.757 204.645 231.917 201.905 231.917 199.058V94.875C231.917 89.0454 227.205 84.3333 221.375 84.3333ZM42.1666 105.933C57.821 107.103 88.3497 110.993 115.958 123.77V205.383C84.3333 192.997 57.0304 189.634 42.1666 188.77V105.933ZM210.833 188.77C195.97 189.634 168.667 192.997 137.042 205.383V123.77C164.65 110.993 195.179 107.103 210.833 105.933V188.77Z" fill="#E63946"/>
<path d="M126.5 84.3333C143.966 84.3333 158.125 70.1743 158.125 52.7083C158.125 35.2423 143.966 21.0833 126.5 21.0833C109.034 21.0833 94.875 35.2423 94.875 52.7083C94.875 70.1743 109.034 84.3333 126.5 84.3333Z" fill="#E63946"/>
</svg>
