<svg width="507" height="317" viewBox="0 0 507 317" fill="none" xmlns="http://www.w3.org/2000/svg">
<g clip-path="url(#clip0)">
<path d="M290.711 310.221C287.573 310.218 284.565 308.642 282.347 305.839C280.129 303.037 278.883 299.236 278.883 295.274C278.883 291.312 280.129 287.511 282.347 284.709C284.565 281.906 287.573 280.33 290.711 280.327H466.534C465.65 278.277 464.345 276.566 462.755 275.373C461.166 274.18 459.352 273.55 457.504 273.548H108.014C103.455 273.555 99.0837 275.847 95.8616 279.92C92.6395 283.994 90.8299 289.516 90.8304 295.274C90.8328 301.031 92.6433 306.551 95.8648 310.624C99.0863 314.697 103.456 316.99 108.014 317H457.504C459.352 316.998 461.166 316.368 462.755 315.175C464.344 313.982 465.65 312.271 466.534 310.221L290.711 310.221Z" fill="#CCCCCC"/>
<path d="M466.768 288.563H299.601C299.345 288.562 299.1 288.434 298.919 288.205C298.739 287.976 298.637 287.666 298.637 287.343C298.637 287.02 298.739 286.71 298.919 286.481C299.1 286.253 299.345 286.124 299.601 286.123H466.768C467.024 286.124 467.269 286.253 467.449 286.481C467.63 286.71 467.732 287.02 467.732 287.343C467.732 287.666 467.63 287.976 467.449 288.205C467.269 288.434 467.024 288.562 466.768 288.563Z" fill="#CCCCCC"/>
<path d="M466.768 296.494H299.601C299.345 296.494 299.099 296.366 298.918 296.137C298.737 295.908 298.635 295.598 298.635 295.274C298.635 294.95 298.737 294.64 298.918 294.411C299.099 294.182 299.345 294.054 299.601 294.054H466.768C467.024 294.054 467.27 294.182 467.451 294.411C467.632 294.64 467.734 294.95 467.734 295.274C467.734 295.598 467.632 295.908 467.451 296.137C467.27 296.366 467.024 296.494 466.768 296.494V296.494Z" fill="#CCCCCC"/>
<path d="M466.768 304.425H299.601C299.345 304.424 299.1 304.296 298.919 304.067C298.739 303.838 298.637 303.528 298.637 303.205C298.637 302.882 298.739 302.572 298.919 302.343C299.1 302.115 299.345 301.986 299.601 301.985H466.768C467.024 301.986 467.269 302.115 467.449 302.343C467.63 302.572 467.732 302.882 467.732 303.205C467.732 303.528 467.63 303.838 467.449 304.067C467.269 304.296 467.024 304.424 466.768 304.425Z" fill="#CCCCCC"/>
<path d="M245.296 268.126C242.158 268.123 239.149 266.547 236.931 263.744C234.713 260.942 233.467 257.141 233.467 253.179C233.467 249.217 234.713 245.416 236.931 242.614C239.149 239.811 242.158 238.235 245.296 238.232H421.119C420.235 236.182 418.929 234.471 417.34 233.278C415.751 232.085 413.937 231.455 412.089 231.453H62.5994C58.0398 231.46 53.6686 233.751 50.4465 237.825C47.2243 241.899 45.4146 247.421 45.4151 253.179C45.4174 258.935 47.228 264.456 50.4496 268.529C53.6711 272.602 58.0406 274.895 62.5994 274.905H412.089C413.937 274.903 415.751 274.273 417.34 273.08C418.929 271.887 420.235 270.176 421.119 268.126L245.296 268.126Z" fill="#E63946"/>
<path d="M421.352 246.468H254.186C253.93 246.467 253.685 246.338 253.504 246.11C253.323 245.881 253.222 245.571 253.222 245.248C253.222 244.925 253.323 244.615 253.504 244.386C253.685 244.157 253.93 244.029 254.186 244.028H421.352C421.609 244.028 421.854 244.156 422.036 244.385C422.217 244.614 422.319 244.924 422.319 245.248C422.319 245.572 422.217 245.882 422.036 246.111C421.854 246.34 421.609 246.468 421.352 246.468V246.468Z" fill="#CCCCCC"/>
<path d="M421.352 254.399H254.186C253.93 254.399 253.684 254.27 253.503 254.042C253.321 253.813 253.22 253.503 253.22 253.179C253.22 252.855 253.321 252.545 253.503 252.316C253.684 252.087 253.93 251.959 254.186 251.959H421.352C421.609 251.959 421.854 252.087 422.036 252.316C422.217 252.545 422.319 252.855 422.319 253.179C422.319 253.503 422.217 253.813 422.036 254.042C421.854 254.27 421.609 254.399 421.352 254.399V254.399Z" fill="#CCCCCC"/>
<path d="M421.352 262.33H254.186C253.93 262.329 253.685 262.2 253.504 261.972C253.323 261.743 253.222 261.433 253.222 261.11C253.222 260.787 253.323 260.477 253.504 260.248C253.685 260.019 253.93 259.891 254.186 259.89H421.352C421.479 259.889 421.605 259.921 421.723 259.982C421.84 260.043 421.947 260.133 422.037 260.246C422.127 260.359 422.199 260.494 422.247 260.642C422.296 260.79 422.321 260.949 422.321 261.11C422.321 261.27 422.296 261.429 422.247 261.578C422.199 261.726 422.127 261.86 422.037 261.974C421.947 262.087 421.84 262.177 421.723 262.238C421.605 262.299 421.479 262.33 421.352 262.33V262.33Z" fill="#CCCCCC"/>
<path d="M199.881 224.626C196.743 224.623 193.734 223.047 191.516 220.245C189.298 217.442 188.052 213.642 188.052 209.679C188.052 205.717 189.298 201.917 191.516 199.114C193.734 196.311 196.743 194.735 199.881 194.732H375.704C374.819 192.682 373.514 190.971 371.925 189.778C370.336 188.585 368.522 187.955 366.673 187.953H17.184C12.6244 187.96 8.25331 190.252 5.03116 194.325C1.80902 198.399 -0.000574938 203.921 -7.49598e-06 209.679C0.00229937 215.436 1.81282 220.956 5.03434 225.029C8.25586 229.102 12.6253 231.395 17.184 231.405H366.673C368.522 231.403 370.336 230.773 371.925 229.58C373.514 228.387 374.819 226.676 375.704 224.626L199.881 224.626Z" fill="#CCCCCC"/>
<path d="M375.937 202.968H208.771C208.515 202.968 208.27 202.839 208.089 202.61C207.908 202.381 207.807 202.071 207.807 201.748C207.807 201.425 207.908 201.115 208.089 200.886C208.27 200.658 208.515 200.529 208.771 200.528H375.937C376.193 200.528 376.439 200.657 376.62 200.885C376.802 201.114 376.904 201.425 376.904 201.748C376.904 202.072 376.802 202.382 376.62 202.611C376.439 202.84 376.193 202.968 375.937 202.968Z" fill="#CCCCCC"/>
<path d="M375.937 210.899H208.771C208.644 210.899 208.518 210.868 208.401 210.806C208.284 210.745 208.177 210.655 208.087 210.542C207.998 210.429 207.927 210.294 207.878 210.146C207.829 209.998 207.804 209.839 207.804 209.679C207.804 209.519 207.829 209.36 207.878 209.212C207.927 209.064 207.998 208.93 208.087 208.816C208.177 208.703 208.284 208.613 208.401 208.552C208.518 208.491 208.644 208.459 208.771 208.459H375.937C376.064 208.459 376.19 208.491 376.307 208.552C376.424 208.613 376.531 208.703 376.62 208.816C376.71 208.93 376.781 209.064 376.83 209.212C376.879 209.36 376.903 209.519 376.903 209.679C376.903 209.839 376.879 209.998 376.83 210.146C376.781 210.294 376.71 210.429 376.62 210.542C376.531 210.655 376.424 210.745 376.307 210.806C376.19 210.868 376.064 210.899 375.937 210.899V210.899Z" fill="#CCCCCC"/>
<path d="M375.937 218.83H208.771C208.514 218.83 208.269 218.702 208.087 218.473C207.906 218.244 207.804 217.934 207.804 217.61C207.804 217.287 207.906 216.976 208.087 216.747C208.269 216.519 208.514 216.39 208.771 216.39H375.937C376.064 216.39 376.19 216.422 376.307 216.483C376.424 216.544 376.531 216.634 376.62 216.747C376.71 216.861 376.781 216.995 376.83 217.143C376.879 217.291 376.903 217.45 376.903 217.61C376.903 217.77 376.879 217.929 376.83 218.077C376.781 218.225 376.71 218.36 376.62 218.473C376.531 218.586 376.424 218.676 376.307 218.737C376.19 218.799 376.064 218.83 375.937 218.83V218.83Z" fill="#CCCCCC"/>
<path d="M379.798 131.828C378.881 131.827 377.998 131.385 377.33 130.593C376.661 129.801 376.256 128.717 376.196 127.562L375.659 117.219C375.596 116.011 375.916 114.821 376.549 113.91C377.181 113 378.073 112.444 379.03 112.365L443.205 107.058C444.216 106.975 445.231 107.143 446.191 107.555C447.151 107.966 448.037 108.613 448.799 109.457C449.561 110.301 450.184 111.326 450.633 112.474C451.081 113.622 451.346 114.871 451.412 116.148C451.478 117.425 451.345 118.707 451.019 119.919C450.693 121.131 450.181 122.25 449.513 123.213C448.844 124.175 448.032 124.962 447.123 125.528C446.214 126.094 445.225 126.428 444.213 126.512L380.039 131.819C379.958 131.825 379.878 131.828 379.798 131.828Z" fill="#E9C46A"/>
<path d="M392.452 133.162C391.517 133.16 390.619 132.701 389.946 131.882C389.273 131.063 388.877 129.947 388.841 128.767L388.383 113.318C388.366 112.719 388.442 112.122 388.607 111.56C388.772 110.998 389.023 110.482 389.346 110.043C389.669 109.604 390.057 109.249 390.489 108.999C390.92 108.749 391.387 108.609 391.861 108.587L444.633 106.096C445.592 106.051 446.525 106.488 447.227 107.312C447.93 108.135 448.345 109.278 448.381 110.487L448.838 125.936C448.856 126.535 448.78 127.133 448.615 127.695C448.45 128.257 448.199 128.772 447.876 129.212C447.553 129.651 447.164 130.006 446.733 130.256C446.301 130.506 445.835 130.646 445.361 130.668L392.588 133.159C392.543 133.161 392.497 133.162 392.452 133.162Z" fill="#1D3557"/>
<path d="M454.292 275.572H446.084C445.125 275.57 444.206 275.089 443.529 274.233C442.851 273.377 442.47 272.217 442.469 271.007V184.616C442.47 183.406 442.851 182.245 443.529 181.39C444.206 180.534 445.125 180.053 446.084 180.051H454.292C455.251 180.053 456.17 180.534 456.848 181.39C457.525 182.245 457.906 183.406 457.908 184.616V271.007C457.906 272.217 457.525 273.377 456.848 274.233C456.17 275.089 455.251 275.57 454.292 275.572V275.572Z" fill="#1D3557"/>
<path d="M417.857 229.906L410.837 224.533C410.018 223.905 409.43 222.892 409.201 221.716C408.973 220.541 409.123 219.299 409.619 218.263L445.083 144.385C445.58 143.35 446.383 142.608 447.314 142.319C448.244 142.031 449.228 142.221 450.048 142.847L457.068 148.22C457.887 148.849 458.475 149.862 458.703 151.037C458.932 152.212 458.781 153.454 458.285 154.49L422.822 228.369C422.324 229.403 421.522 230.146 420.591 230.434C419.66 230.722 418.677 230.532 417.857 229.906Z" fill="#2F2E41"/>
<path d="M441.825 89.8929C457.49 89.8929 470.189 73.8573 470.189 54.0764C470.189 34.2955 457.49 18.2599 441.825 18.2599C426.16 18.2599 413.461 34.2955 413.461 54.0764C413.461 73.8573 426.16 89.8929 441.825 89.8929Z" fill="#E9C46A"/>
<path d="M426.471 66.3054C425.559 65.9268 424.721 65.306 424.015 64.4846C423.547 63.8981 423.186 63.1894 422.958 62.4083C422.729 61.6272 422.639 60.7924 422.693 59.9626C422.722 59.3713 422.86 58.7967 423.095 58.2836C423.329 57.7706 423.655 57.3331 424.046 57.0052C425.06 56.1836 426.417 56.1811 427.798 56.9498L427.745 42.9675L428.858 42.9608L428.919 59.3984L428.062 58.7177C427.068 57.9296 425.649 57.3749 424.646 58.1875C424.398 58.4022 424.193 58.6861 424.046 59.0173C423.9 59.3485 423.815 59.7179 423.8 60.0969C423.763 60.7151 423.831 61.3363 424.001 61.9181C424.17 62.4999 424.437 63.0287 424.783 63.4686C426.011 64.9501 427.803 65.4133 429.847 65.8274L429.671 67.214C428.585 67.0324 427.514 66.7283 426.471 66.3054V66.3054Z" fill="#2F2E41"/>
<path d="M416.279 42.2611L416.134 43.6534L422.073 44.6438L422.219 43.2515L416.279 42.2611Z" fill="#2F2E41"/>
<path d="M435.026 45.3866L434.881 46.7789L440.82 47.7693L440.965 46.377L435.026 45.3866Z" fill="#2F2E41"/>
<path d="M465.509 207.795H417.679C416.426 207.793 415.224 207.164 414.338 206.044C413.452 204.925 412.953 203.408 412.952 201.825L422.965 104.865C422.973 103.29 423.474 101.782 424.36 100.672C425.245 99.5621 426.442 98.9396 427.69 98.9408H444.664C451.444 98.9504 457.944 102.356 462.738 108.409C467.532 114.463 470.229 122.671 470.237 131.232V201.825C470.235 203.408 469.737 204.925 468.85 206.044C467.964 207.164 466.763 207.793 465.509 207.795Z" fill="#1D3557"/>
<path d="M506.66 169.588C506.956 170.387 507.062 171.276 506.967 172.149C506.871 173.022 506.578 173.842 506.122 174.509L500.756 182.353C500.445 182.806 500.067 183.178 499.643 183.447C499.219 183.717 498.757 183.878 498.283 183.921C497.81 183.965 497.334 183.89 496.883 183.702C496.433 183.513 496.016 183.214 495.657 182.822L446.992 129.732C446.225 128.895 445.595 127.876 445.14 126.732C444.685 125.588 444.412 124.342 444.338 123.065C444.264 121.788 444.39 120.506 444.709 119.29C445.028 118.075 445.533 116.951 446.196 115.982C446.859 115.013 447.666 114.219 448.572 113.644C449.478 113.07 450.465 112.726 451.476 112.633C452.487 112.54 453.503 112.699 454.465 113.102C455.428 113.505 456.318 114.143 457.085 114.98L505.75 168.071C506.135 168.49 506.445 169.007 506.66 169.588Z" fill="#E9C46A"/>
<path d="M495.919 152.068C496.215 152.867 496.321 153.756 496.226 154.629C496.13 155.502 495.837 156.321 495.381 156.989L486.215 170.386C485.587 171.301 484.698 171.864 483.742 171.952C482.786 172.04 481.842 171.646 481.116 170.856L441.155 127.261C440.796 126.869 440.501 126.391 440.288 125.856C440.075 125.32 439.947 124.737 439.913 124.139C439.878 123.541 439.937 122.94 440.087 122.371C440.236 121.802 440.473 121.276 440.783 120.822L449.949 107.425C450.259 106.971 450.638 106.599 451.062 106.33C451.486 106.061 451.948 105.9 452.421 105.857C452.895 105.813 453.371 105.888 453.821 106.076C454.272 106.265 454.689 106.563 455.048 106.955L495.009 150.55C495.394 150.969 495.704 151.487 495.919 152.068V152.068Z" fill="#1D3557"/>
<path d="M442.355 32.8336C438.564 28.8715 433.495 32.6189 429.207 32.087C425.105 31.5781 421.803 27.0194 420.903 22.1136C419.853 16.3903 422.129 10.5765 425.556 6.91017C429.31 2.89463 434.351 1.64679 439.154 2.25782C444.659 2.95814 449.731 6.07058 454.297 9.87289C458.703 13.4261 462.768 17.6112 466.412 22.3445C469.677 26.7276 472.467 31.9787 473.422 37.9593C474.29 43.3944 473.781 49.4527 471.297 54.1342C469.979 56.5348 468.193 58.4659 466.111 59.7411C463.942 61.1512 461.621 62.1778 459.523 63.7636C456.351 66.1614 453.306 71.0484 454.386 76.0322C454.618 77.121 455.058 78.1212 455.668 78.9446C456.401 79.9334 457.676 78.573 456.941 77.5815C455.65 75.8403 455.665 73.4764 456.306 71.3452C457.071 68.9425 458.46 66.9393 460.245 65.6635C462.441 64.0073 464.877 62.959 467.131 61.4443C469.289 60.0582 471.15 58.0343 472.556 55.5446C475.207 50.6997 475.929 44.4599 475.224 38.7204C474.462 32.5094 471.843 26.9116 468.596 22.246C465.062 17.1685 460.75 12.9021 456.353 9.08196C451.636 4.98288 446.44 1.54635 440.731 0.395307C435.781 -0.602471 430.445 0.212939 426.183 3.71054C422.205 6.97532 419.2 12.4993 418.984 18.5964C418.916 21.3699 419.434 24.1163 420.485 26.5531C421.536 28.9899 423.082 31.0289 424.965 32.4605C426.895 33.8571 429.124 34.453 431.337 34.1643C433.704 33.9159 436.062 32.9427 438.451 33.1399C439.531 33.1967 440.568 33.6967 441.403 34.5641C442.231 35.4298 443.177 33.6922 442.355 32.8336V32.8336Z" fill="#2F2E41"/>
<path d="M409.003 219.512C409.013 219.432 409.025 219.353 409.038 219.274C409.137 218.688 409.327 218.132 409.598 217.639C409.868 217.145 410.213 216.725 410.613 216.401L417.511 210.783C418.317 210.128 419.296 209.904 420.233 210.159C421.169 210.414 421.988 211.128 422.508 212.145L443.788 253.804C444.307 254.821 444.486 256.058 444.283 257.241C444.081 258.424 443.515 259.458 442.709 260.114L435.811 265.733C435.005 266.387 434.026 266.612 433.089 266.356C432.152 266.101 431.334 265.387 430.813 264.371L409.534 222.712C409.048 221.766 408.858 220.625 409.003 219.512V219.512Z" fill="#1D3557"/>
</g>
<defs>
<clipPath id="clip0">
<rect width="507" height="317" fill="white"/>
</clipPath>
</defs>
</svg>
